<?xml version="1.0" standalone="no"?>
<!DOCTYPE svg PUBLIC "-//W3C//DTD SVG 20010904//EN"
 "http://www.w3.org/TR/2001/REC-SVG-20010904/DTD/svg10.dtd">
<svg version="1.0" xmlns="http://www.w3.org/2000/svg"
 width="260.000000pt" height="260.000000pt" viewBox="0 0 260.000000 260.000000"
 preserveAspectRatio="xMidYMid meet">
<metadata>
Created by potrace 1.11, written by Peter Selinger 2001-2013
</metadata>
<g transform="translate(0.000000,260.000000) scale(0.100000,-0.100000)"
fill="#000000" stroke="none">
<path d="M0 1300 l0 -1300 1300 0 1300 0 0 1300 0 1300 -1300 0 -1300 0 0
-1300z m1383 452 c49 -24 74 -44 95 -75 31 -47 52 -91 52 -111 0 -12 -88 -43
-95 -34 -1 2 -11 24 -23 49 -24 56 -70 93 -135 110 -61 15 -155 6 -206 -21
-53 -27 -109 -94 -126 -154 -22 -74 -20 -213 5 -280 58 -154 247 -210 418
-125 l67 34 0 75 0 75 -117 3 -118 3 0 44 0 45 175 0 175 0 0 -144 0 -145 -27
-19 c-135 -95 -303 -126 -445 -82 -121 37 -195 105 -240 220 -30 76 -31 229
-4 314 58 175 186 259 387 253 85 -2 103 -6 162 -35z m580 -306 l110 -330 112
330 112 329 77 3 76 3 0 -396 0 -395 -55 0 -55 0 0 318 -1 317 -33 -90 c-17
-49 -67 -192 -110 -317 l-78 -228 -52 0 -51 0 -105 313 -105 312 -3 -312 -2
-313 -55 0 -55 0 0 395 0 396 82 -3 81 -3 110 -329z"/>
</g>
</svg>
